<svg width="99" height="17" viewBox="0 0 99 17" fill="none" xmlns="http://www.w3.org/2000/svg">
<g clip-path="url(#clip0_10451_5132)">
<path d="M8.05465 1.01869C8.34582 0.327102 9.33752 0.327103 9.62869 1.01869L11.3472 5.10057C11.47 5.39213 11.7476 5.59134 12.0661 5.61657L16.5267 5.96986C17.2825 6.02972 17.589 6.96147 17.0131 7.44875L13.6147 10.3247C13.3719 10.5302 13.2659 10.8526 13.34 11.1597L14.3783 15.4599C14.5542 16.1885 13.752 16.7644 13.1049 16.374L9.28598 14.0695C9.0132 13.9049 8.67014 13.9049 8.39737 14.0695L4.57842 16.374C3.93137 16.7644 3.12908 16.1885 3.30499 15.4599L4.34331 11.1597C4.41747 10.8526 4.31146 10.5302 4.06872 10.3247L0.670158 7.44875C0.0943449 6.96147 0.400798 6.02972 1.15656 5.96986L5.61722 5.61657C5.93584 5.59134 6.21338 5.39213 6.33613 5.10057L8.05465 1.01869Z" fill="#ADBECC"/>
<path d="M28.3828 1.01869C28.6739 0.327102 29.6656 0.327103 29.9568 1.01869L31.6753 5.10057C31.7981 5.39213 32.0757 5.59134 32.3943 5.61657L36.8549 5.96986C37.6106 6.02972 37.9171 6.96147 37.3413 7.44875L33.9428 10.3247C33.7 10.5302 33.594 10.8526 33.6681 11.1597L34.7064 15.4599C34.8824 16.1885 34.0801 16.7644 33.433 16.374L29.6141 14.0695C29.3413 13.9049 28.9983 13.9049 28.7255 14.0695L24.9065 16.374C24.2595 16.7644 23.4572 16.1885 23.6331 15.4599L24.6714 11.1597C24.7456 10.8526 24.6396 10.5302 24.3968 10.3247L20.9983 7.44875C20.4225 6.96147 20.7289 6.02972 21.4847 5.96986L25.9453 5.61657C26.264 5.59134 26.5415 5.39213 26.6643 5.10057L28.3828 1.01869Z" fill="#ADBECC"/>
<path d="M48.7148 1.01869C49.006 0.327102 49.9977 0.327103 50.2888 1.01869L52.0073 5.10057C52.1302 5.39213 52.4077 5.59134 52.7263 5.61657L57.1869 5.96986C57.9427 6.02972 58.2491 6.96147 57.6733 7.44875L54.2748 10.3247C54.0321 10.5302 53.926 10.8526 54.0002 11.1597L55.0385 15.4599C55.2144 16.1885 54.4121 16.7644 53.7651 16.374L49.9461 14.0695C49.6734 13.9049 49.3303 13.9049 49.0575 14.0695L45.2386 16.374C44.5915 16.7644 43.7892 16.1885 43.9651 15.4599L45.0035 11.1597C45.0776 10.8526 44.9716 10.5302 44.7289 10.3247L41.3303 7.44875C40.7545 6.96147 41.061 6.02972 41.8167 5.96986L46.2774 5.61657C46.596 5.59134 46.8735 5.39213 46.9963 5.10057L48.7148 1.01869Z" fill="#ADBECC"/>
<path d="M69.0429 1.01869C69.3341 0.327102 70.3258 0.327103 70.617 1.01869L72.3355 5.10057C72.4583 5.39213 72.7358 5.59134 73.0544 5.61657L77.515 5.96986C78.2708 6.02972 78.5772 6.96147 78.0014 7.44875L74.6029 10.3247C74.3602 10.5302 74.2541 10.8526 74.3283 11.1597L75.3666 15.4599C75.5425 16.1885 74.7403 16.7644 74.0932 16.374L70.2743 14.0695C70.0015 13.9049 69.6584 13.9049 69.3857 14.0695L65.5667 16.374C64.9197 16.7644 64.1174 16.1885 64.2933 15.4599L65.3316 11.1597C65.4058 10.8526 65.2997 10.5302 65.057 10.3247L61.6584 7.44875C61.0826 6.96147 61.3891 6.02972 62.1448 5.96986L66.6055 5.61657C66.9241 5.59134 67.2017 5.39213 67.3244 5.10057L69.0429 1.01869Z" fill="#ADBECC"/>
<path d="M89.3711 1.01869C89.6622 0.327102 90.6539 0.327103 90.9451 1.01869L92.6636 5.10057C92.7864 5.39213 93.064 5.59134 93.3825 5.61657L97.8432 5.96986C98.5989 6.02972 98.9054 6.96147 98.3296 7.44875L94.9311 10.3247C94.6883 10.5302 94.5823 10.8526 94.6564 11.1597L95.6947 15.4599C95.8706 16.1885 95.0684 16.7644 94.4213 16.374L90.6024 14.0695C90.3296 13.9049 89.9865 13.9049 89.7138 14.0695L85.8948 16.374C85.2478 16.7644 84.4455 16.1885 84.6214 15.4599L85.6597 11.1597C85.7339 10.8526 85.6279 10.5302 85.3851 10.3247L81.9866 7.44875C81.4108 6.96147 81.7172 6.02972 82.473 5.96986L86.9336 5.61657C87.2522 5.59134 87.5298 5.39213 87.6525 5.10057L89.3711 1.01869Z" fill="#ADBECC"/>
</g>
<defs>
<clipPath id="clip0_10451_5132">
<rect width="98.2585" height="16" fill="white" transform="translate(0.371094 0.5)"/>
</clipPath>
</defs>
</svg>
