<svg width="171" height="25" viewBox="0 0 171 25" fill="none" xmlns="http://www.w3.org/2000/svg">
<path d="M0.655762 0.562533V24.4374H3.98464V14.7371H4.44996C6.45445 14.7371 7.92201 14.2002 8.78108 13.1979C9.74752 12.0883 10.0339 10.8713 10.0339 7.68561C10.0339 4.64309 9.74752 3.39029 8.74528 2.13749C7.77884 0.920478 6.70501 0.562533 3.80566 0.562533H0.655762ZM3.98464 11.6588V3.67664H4.44996C6.41865 3.67664 6.81239 4.32094 6.81239 7.64981C6.81239 11.0145 6.41865 11.6588 4.44996 11.6588H3.98464Z" fill="#E82E2E"/>
<path d="M12.5756 0.562533V24.4374H15.9044V14.3076C16.4056 14.2718 16.5129 14.2718 17.0856 14.1644L19.0185 24.4374H22.598L20.2713 13.019C21.6315 11.265 21.9537 10.1912 21.9537 7.22028C21.9537 4.96524 21.5599 3.35449 20.7009 2.24487C19.7344 0.992066 18.5174 0.562533 15.8328 0.562533H12.5756ZM15.9044 10.9429V3.67664H16.3698C18.2311 3.67664 18.6964 4.28515 18.6964 6.86234C18.6964 9.04579 18.6248 9.6185 18.3742 10.0838C18.0521 10.6923 17.4436 10.9429 16.3698 10.9429H15.9044Z" fill="#E82E2E"/>
<path d="M34.2938 6.61178C34.2938 3.78402 34.1864 3.17552 33.5421 2.13749C32.7546 0.956272 31.2513 0.20459 29.5689 0.20459C27.8866 0.20459 26.3832 0.956272 25.5958 2.13749C24.9515 3.17552 24.8441 3.78402 24.8441 6.61178V18.3523C24.8441 21.1801 24.9515 21.7886 25.5958 22.8266C26.3832 24.0436 27.8866 24.7953 29.5689 24.7953C31.2513 24.7953 32.7546 24.0436 33.5421 22.8266C34.1864 21.7886 34.2938 21.2159 34.2938 18.3523V6.61178ZM30.9649 19.7483C30.9649 21.1085 30.5354 21.6812 29.5689 21.6812C28.5667 21.6812 28.1729 21.1085 28.1729 19.7483V5.25159C28.1729 3.89141 28.6025 3.3187 29.5689 3.3187C30.5712 3.3187 30.9649 3.89141 30.9649 5.25159V19.7483Z" fill="#E82E2E"/>
<path d="M37.0793 0.562533V24.4374H40.4082V13.4843H43.7013V10.3702H40.4082V3.67664H45.133V0.562533H37.0793Z" fill="#E82E2E"/>
<path d="M50.3705 0.562533H47.0416V24.4374H50.3705V0.562533Z" fill="#E82E2E"/>
<path d="M55.651 24.4374H58.9798V3.67664H62.2371V0.562533H52.5369V3.67664H55.651V24.4374Z" fill="#E82E2E"/>
<path d="M66.6247 19.0682H69.6315L70.24 24.4374H73.4973L70.3831 0.562533H66.0878L62.8305 24.4374H66.052L66.6247 19.0682ZM69.2735 15.9541H66.9827L68.1281 4.89365L69.2735 15.9541Z" fill="#E82E2E"/>
<path d="M75.9847 0.562533V24.4374H79.3136C81.9623 24.4374 83.5015 23.9362 84.5395 22.7192C85.4702 21.6096 85.7923 20.2852 85.7923 17.4217C85.7923 13.9854 85.148 12.6252 83.2151 11.8735C84.8617 10.8355 85.3628 9.58271 85.3628 6.57598C85.3628 4.39253 84.9333 3.03234 83.8952 1.99431C82.714 0.813094 81.8549 0.562533 78.9914 0.562533H75.9847ZM79.3136 21.3233V13.5917H79.6357C81.9623 13.5917 82.4635 14.3076 82.4635 17.4575C82.4635 20.6074 81.9623 21.3233 79.6357 21.3233H79.3136ZM79.3136 10.4776V3.67664H79.7789C81.6402 3.67664 82.1055 4.32094 82.1055 6.86234C82.1055 9.86906 81.7118 10.4776 79.7789 10.4776H79.3136Z" fill="#E82E2E"/>
<path d="M88.5337 24.4374H96.5874V21.3233H91.8625V0.562533H88.5337V24.4374Z" fill="#E82E2E"/>
<path d="M98.6008 0.562533V24.4374H106.941V21.3233H101.93V13.4843H105.223V10.3702H101.93V3.67664H106.655V0.562533H98.6008Z" fill="#E82E2E"/>
<path d="M108.977 17.5291C108.941 18.1018 108.941 18.3165 108.941 18.8176C108.941 20.8937 109.191 21.896 109.979 22.9698C110.91 24.2226 112.162 24.7953 113.952 24.7953C117.066 24.7953 118.82 23.0056 118.82 19.8199C118.82 17.7796 117.961 15.3456 116.422 13.0906L114.74 10.6565C112.52 7.32766 112.377 7.00552 112.377 5.53795C112.377 4.10617 112.878 3.3187 113.773 3.3187C114.525 3.3187 115.062 3.85561 115.169 4.82206C115.241 5.32318 115.277 5.75271 115.277 6.96972L118.534 6.64757C118.534 4.67888 118.534 4.5715 118.355 3.67664C117.89 1.49319 116.243 0.20459 113.988 0.20459C110.981 0.20459 109.084 2.20907 109.084 5.35897C109.084 7.47084 109.764 9.11738 111.804 12.1957L113.451 14.6297C115.098 16.8132 115.491 17.7438 115.491 19.3188C115.491 20.8579 114.99 21.6812 113.988 21.6812C112.699 21.6812 112.27 20.8937 112.27 18.4239V17.3859L108.977 17.5291Z" fill="white"/>
<path d="M128.063 8.61626L131.07 0.562533H127.669L124.412 9.54691V0.562533H121.083V24.4374H124.412V17.0637L125.844 13.1621L128.313 24.4374H131.786L128.063 8.61626Z" fill="white"/>
<path d="M137.52 0.562533H134.191V24.4374H137.52V0.562533Z" fill="white"/>
<path d="M140.378 24.4374H148.432V21.3233H143.707V0.562533H140.378V24.4374Z" fill="white"/>
<path d="M150.446 24.4374H158.499V21.3233H153.774V0.562533H150.446V24.4374Z" fill="white"/>
<path d="M160.501 17.5291C160.465 18.1018 160.465 18.3165 160.465 18.8176C160.465 20.8937 160.716 21.896 161.503 22.9698C162.434 24.2226 163.687 24.7953 165.476 24.7953C168.591 24.7953 170.344 23.0056 170.344 19.8199C170.344 17.7796 169.485 15.3456 167.946 13.0906L166.264 10.6565C164.045 7.32766 163.901 7.00552 163.901 5.53795C163.901 4.10617 164.403 3.3187 165.297 3.3187C166.049 3.3187 166.586 3.85561 166.693 4.82206C166.765 5.32318 166.801 5.75271 166.801 6.96972L170.058 6.64757C170.058 4.67888 170.058 4.5715 169.879 3.67664C169.414 1.49319 167.767 0.20459 165.512 0.20459C162.505 0.20459 160.608 2.20907 160.608 5.35897C160.608 7.47084 161.288 9.11738 163.329 12.1957L164.975 14.6297C166.622 16.8132 167.016 17.7438 167.016 19.3188C167.016 20.8579 166.514 21.6812 165.512 21.6812C164.224 21.6812 163.794 20.8937 163.794 18.4239V17.3859L160.501 17.5291Z" fill="white"/>
</svg>
